<svg aria-hidden="true" style="position: absolute; width: 0; height: 0; overflow: hidden;" version="1.1" xmlns="http://www.w3.org/2000/svg" xmlns:xlink="http://www.w3.org/1999/xlink">
  <defs>
    <symbol id="icon-menu" viewBox="0 0 32 32">
      <path d="M2.666 8c0-0.354 0.14-0.693 0.391-0.943s0.589-0.391 0.943-0.391h24c0.354 0 0.693 0.14 0.943 0.391s0.39 0.589 0.39 0.943c0 0.354-0.14 0.693-0.39 0.943s-0.589 0.391-0.943 0.391h-24c-0.354 0-0.693-0.14-0.943-0.391s-0.391-0.589-0.391-0.943zM2.666 16.043c0-0.354 0.14-0.693 0.391-0.943s0.589-0.39 0.943-0.39h24c0.354 0 0.693 0.14 0.943 0.39s0.39 0.589 0.39 0.943c0 0.354-0.14 0.693-0.39 0.943s-0.589 0.39-0.943 0.39h-24c-0.354 0-0.693-0.14-0.943-0.39s-0.391-0.589-0.391-0.943zM4 22.752c-0.354 0-0.693 0.141-0.943 0.39s-0.391 0.589-0.391 0.943 0.14 0.693 0.391 0.943c0.25 0.25 0.589 0.39 0.943 0.39h24c0.354 0 0.693-0.14 0.943-0.39s0.39-0.589 0.39-0.943c0-0.354-0.14-0.693-0.39-0.943s-0.589-0.39-0.943-0.39h-24z"></path>
    </symbol>
    <symbol id="icon-big-arrow" viewBox="0 0 32 32">
      <path stroke-linejoin="miter" stroke-linecap="butt" stroke-miterlimit="4" stroke-width="1.4545" d="M8.378 16.395v0c-0.053-0.051-0.096-0.112-0.125-0.18v0c-0.029-0.068-0.044-0.141-0.044-0.215s0.015-0.147 0.044-0.215v0c0.029-0.068 0.072-0.129 0.125-0.18v-0l14.186-13.516c0.102-0.097 0.236-0.151 0.376-0.151 0.138 0 0.271 0.052 0.371 0.146l0.008 0.008-0 0 0.014 0.013c0.044 0.041 0.078 0.091 0.102 0.147s0.036 0.115 0.036 0.175-0.012 0.12-0.036 0.175c-0.024 0.055-0.059 0.105-0.102 0.147l-0.001 0.001-13.911 13.249 13.912 13.255c0.044 0.041 0.078 0.091 0.102 0.147s0.036 0.115 0.036 0.175c0 0.060-0.012 0.12-0.036 0.175s-0.059 0.105-0.102 0.147l-0-0-0.013 0.013-0.008 0.008c-0.101 0.094-0.233 0.146-0.371 0.146-0.14 0-0.275-0.054-0.376-0.151l-0-0-14.186-13.516z"></path>
    </symbol>
    <symbol id="icon-rocket" viewBox="0 0 32 32">
      <path fill="#fff" style="fill: var(--color1, #fff)" d="M32 16c0 8.837-7.163 16-16 16s-16-7.163-16-16c0-8.837 7.163-16 16-16s16 7.163 16 16z"></path>
      <path fill="#7eb101" style="fill: var(--color2, #7eb101)" d="M9.489 14.422l2.356 1c0.267-0.533 0.552-1.059 0.856-1.578s0.626-1.015 0.967-1.489l-1.756-0.356-2.422 2.422zM12.911 16.222l2.956 2.956c0.844-0.385 1.637-0.822 2.378-1.311s1.341-0.963 1.8-1.422c1.2-1.2 2.081-2.43 2.644-3.689s0.867-2.682 0.911-4.267c-1.585 0.044-3.007 0.348-4.267 0.911s-2.489 1.444-3.689 2.644c-0.459 0.459-0.933 1.059-1.422 1.8s-0.926 1.533-1.311 2.378zM18 14.089c-0.296-0.296-0.444-0.663-0.444-1.1s0.148-0.804 0.444-1.1c0.296-0.296 0.663-0.444 1.1-0.444s0.804 0.148 1.1 0.444c0.296 0.296 0.444 0.663 0.444 1.1s-0.148 0.804-0.444 1.1c-0.296 0.296-0.663 0.444-1.1 0.444s-0.804-0.148-1.1-0.444zM17.667 22.6l2.422-2.422-0.356-1.756c-0.474 0.341-0.97 0.663-1.489 0.967s-1.044 0.589-1.578 0.856l1 2.356zM24.911 7.178c0.133 2.015-0.119 3.852-0.756 5.511s-1.689 3.222-3.156 4.689l-0.089 0.089 0.489 2.444c0.044 0.222 0.033 0.437-0.033 0.644s-0.181 0.393-0.344 0.556l-3.8 3.822-1.889-4.4-3.778-3.778-4.4-1.889 3.822-3.8c0.163-0.163 0.348-0.278 0.556-0.344s0.422-0.078 0.644-0.033l2.444 0.489c0.015-0.015 0.030-0.026 0.044-0.033s0.030-0.019 0.044-0.033c1.467-1.467 3.030-2.522 4.689-3.167s3.496-0.9 5.511-0.767zM8.644 19.444c0.518-0.519 1.152-0.781 1.9-0.789s1.381 0.248 1.9 0.767c0.518 0.518 0.774 1.152 0.767 1.9s-0.27 1.381-0.789 1.9c-0.385 0.385-0.981 0.704-1.789 0.956s-2.019 0.489-3.633 0.711c0.222-1.615 0.456-2.83 0.7-3.644s0.559-1.415 0.944-1.8zM9.578 20.4c-0.207 0.222-0.393 0.57-0.556 1.044s-0.304 1.081-0.422 1.822c0.741-0.118 1.348-0.259 1.822-0.422s0.822-0.348 1.044-0.556c0.281-0.252 0.426-0.567 0.433-0.944s-0.122-0.707-0.389-0.989c-0.282-0.267-0.611-0.396-0.989-0.389s-0.693 0.152-0.944 0.433z"></path>
    </symbol>
    <symbol id="icon-click" viewBox="0 0 32 32">
      <path fill="#fff" style="fill: var(--color1, #fff)" d="M32 16c0 8.837-7.163 16-16 16s-16-7.163-16-16c0-8.837 7.163-16 16-16s16 7.163 16 16z"></path>
      <path fill="#7eb101" style="fill: var(--color2, #7eb101)" d="M15.667 6.222c1.348 0 2.5 0.47 3.456 1.411s1.433 2.085 1.433 3.433c0 0.77-0.167 1.496-0.5 2.178s-0.804 1.259-1.411 1.733h-0.756v-1.111c0.43-0.341 0.759-0.756 0.989-1.244s0.344-1.007 0.344-1.556c0-0.978-0.348-1.807-1.044-2.489s-1.533-1.022-2.511-1.022c-0.978 0-1.815 0.341-2.511 1.022s-1.044 1.511-1.044 2.489c0 0.548 0.115 1.067 0.344 1.556s0.559 0.904 0.989 1.244v1.6c-0.83-0.43-1.481-1.037-1.956-1.822s-0.711-1.644-0.711-2.578c0-1.348 0.478-2.493 1.433-3.433s2.107-1.411 3.456-1.411zM14.822 24.889c-0.252 0-0.489-0.048-0.711-0.144s-0.415-0.226-0.578-0.389l-4.578-4.578 1.244-1.289c0.207-0.207 0.441-0.367 0.7-0.478s0.53-0.13 0.811-0.056l1.733 0.4v-7.244c0-0.622 0.215-1.148 0.644-1.578s0.956-0.644 1.578-0.644c0.622 0 1.148 0.215 1.578 0.644s0.644 0.956 0.644 1.578v3.822h0.578c0.074 0 0.141 0.015 0.2 0.044s0.126 0.059 0.2 0.089l3.289 1.6c0.356 0.163 0.619 0.426 0.789 0.789s0.219 0.737 0.144 1.122l-0.8 4.844c-0.074 0.43-0.281 0.781-0.622 1.056s-0.726 0.411-1.156 0.411h-5.689zM14.645 23.556h6.244l0.956-5.533-4.067-2.022h-1.222v-4.889c0-0.267-0.081-0.481-0.244-0.644s-0.378-0.244-0.644-0.244-0.482 0.081-0.644 0.244c-0.163 0.163-0.244 0.378-0.244 0.644v8.867l-3.422-0.733-0.511 0.511 3.8 3.8zM20.889 23.556v0z"></path>
    </symbol>
    <symbol id="icon-small-arrow" viewBox="0 0 32 32">
      <path d="M20.469 15.728c0.329 0.329 0.329 0.863 0 1.192l-8.592 8.592c-0.329 0.329-0.863 0.329-1.192 0l-0.397-0.397c-0.329-0.329-0.329-0.863 0-1.192l7.599-7.599-7.599-7.599c-0.329-0.329-0.329-0.863 0-1.192l0.397-0.397c0.329-0.329 0.863-0.329 1.192 0l8.592 8.592z"></path>
    </symbol>
    <symbol id="icon-star" viewBox="0 0 32 32">
      <path d="M14.513 1.918c0.55-1.302 2.423-1.302 2.973 0l3.246 7.684c0.232 0.549 0.756 0.924 1.358 0.971l8.426 0.665c1.428 0.113 2.006 1.867 0.919 2.784l-6.419 5.414c-0.459 0.387-0.659 0.994-0.519 1.572l1.961 8.095c0.332 1.371-1.183 2.456-2.405 1.721l-7.214-4.338c-0.515-0.31-1.163-0.31-1.678 0l-7.214 4.338c-1.222 0.735-2.738-0.349-2.405-1.721l1.961-8.095c0.14-0.578-0.060-1.185-0.519-1.572l-6.42-5.414c-1.088-0.917-0.509-2.671 0.919-2.784l8.426-0.665c0.602-0.047 1.126-0.422 1.358-0.971l3.246-7.684z"></path>
    </symbol>
  </defs>
</svg>